<?xml version="1.0" standalone="no"?>
<!DOCTYPE svg PUBLIC "-//W3C//DTD SVG 20010904//EN"
 "http://www.w3.org/TR/2001/REC-SVG-20010904/DTD/svg10.dtd">
<svg version="1.0" xmlns="http://www.w3.org/2000/svg"
 width="497.000000pt" height="195.000000pt" viewBox="0 0 497.000000 195.000000"
 preserveAspectRatio="xMidYMid meet">

<g transform="translate(0.000000,195.000000) scale(0.100000,-0.100000)"
fill="#0E185F" stroke="none">
<path d="M583 1834 c-11 -29 13 -35 123 -32 104 3 109 4 112 26 3 22 2 22
-113 22 -96 0 -117 -3 -122 -16z"/>
<path d="M464 1822 c-35 -28 -44 -56 -44 -135 l0 -74 -39 -7 c-27 -4 -47 -16
-65 -37 l-26 -31 0 -419 0 -419 29 -32 29 -33 134 -3 c131 -2 134 -2 162 24
l29 25 -9 120 -9 119 -119 -55 c-66 -30 -123 -55 -128 -55 -20 0 -5 30 26 54
24 18 36 36 38 58 3 32 28 53 28 23 0 -13 7 -11 35 11 26 19 35 34 35 55 0 19
5 29 15 29 8 0 15 -5 15 -10 0 -6 11 -3 24 7 20 15 26 30 31 83 19 185 65 203
87 34 12 -96 38 -145 64 -123 18 15 34 3 34 -25 0 -12 13 -35 29 -50 23 -22
29 -25 34 -12 10 26 27 18 27 -12 0 -19 11 -39 35 -62 39 -38 47 -65 15 -55
-11 4 -66 28 -123 54 -87 41 -103 46 -108 32 -3 -9 -9 -60 -13 -115 -7 -98 -7
-99 20 -127 28 -29 28 -29 151 -29 139 0 172 10 198 60 22 42 22 803 1 855
-16 36 -59 65 -101 65 -25 0 -25 0 -25 86 0 83 -1 87 -31 115 -35 33 -99 42
-99 14 0 -9 9 -15 25 -15 14 0 37 -11 50 -25 22 -21 25 -33 25 -100 l0 -75
-250 0 -250 0 0 65 c0 94 25 135 81 135 10 0 19 7 19 15 0 21 -59 19 -86 -3z"/>
<path d="M1180 1105 l0 -465 60 0 60 0 0 312 c0 171 3 308 6 305 6 -6 94 -572
94 -604 0 -8 13 -13 30 -13 17 0 30 2 30 5 0 20 92 610 95 614 3 2 5 -136 5
-307 l0 -312 65 0 65 0 0 465 0 465 -85 0 c-47 0 -85 -2 -85 -4 0 -3 -18 -98
-40 -213 -22 -114 -40 -219 -40 -232 0 -55 -14 -2 -51 196 -21 114 -41 218
-44 231 -5 21 -11 22 -85 22 l-80 0 0 -465z"/>
<path d="M1890 1562 c0 -9 -127 -855 -134 -894 l-5 -28 64 0 64 0 6 33 c3 17
9 59 13 92 l7 60 67 3 67 3 6 -33 c3 -18 9 -60 13 -93 l7 -60 66 -3 66 -3 -17
113 c-10 62 -42 272 -71 466 l-53 352 -83 0 c-46 0 -83 -3 -83 -8z m110 -418
c27 -187 28 -174 -25 -174 -53 0 -51 -10 -30 157 18 135 24 167 31 161 2 -3
13 -67 24 -144z"/>
<path d="M2260 1105 l0 -465 70 0 70 0 0 206 0 205 53 -3 52 -3 3 -202 2 -203
65 0 65 0 0 465 0 465 -65 0 -65 0 -2 -192 -3 -193 -52 -3 -53 -3 0 195 0 196
-70 0 -70 0 0 -465z"/>
<path d="M2846 1558 c-5 -14 -137 -898 -136 -910 0 -5 29 -8 64 -8 l63 0 7 53
c4 28 9 71 12 95 l6 42 68 0 67 0 7 -52 c4 -29 9 -72 12 -95 l6 -43 64 0 c35
0 64 2 64 4 0 10 -131 873 -136 899 -6 27 -6 27 -85 27 -55 0 -81 -4 -83 -12z
m109 -415 c10 -82 18 -152 19 -158 0 -5 -21 -11 -48 -13 l-48 -3 5 33 c4 18
14 90 23 161 9 70 20 127 24 127 4 0 15 -66 25 -147z"/>
<path d="M3220 1105 l0 -465 65 0 65 0 0 164 c0 145 2 170 21 213 26 59 22 68
80 -184 l44 -193 62 0 c44 0 63 4 63 13 0 6 -31 147 -68 312 l-69 300 63 153
63 153 -66 -3 -66 -3 -56 -152 c-31 -83 -59 -155 -63 -159 -5 -4 -8 65 -8 154
l0 162 -65 0 -65 0 0 -465z"/>
<path d="M3724 1105 l-70 -466 66 3 65 3 8 60 c4 33 10 75 13 93 l5 33 67 -3
67 -3 8 -60 c4 -33 10 -75 13 -92 l5 -33 65 0 66 0 -6 28 c-6 26 -136 886
-136 897 0 3 -37 5 -83 5 l-83 0 -70 -465z m180 29 c23 -173 24 -164 -29 -164
-25 0 -45 4 -45 9 0 4 9 75 20 156 11 81 20 150 21 154 3 27 21 -55 33 -155z"/>
<path d="M4160 1105 l0 -465 160 0 160 0 0 60 0 60 -90 0 -90 0 0 405 0 405
-70 0 -70 0 0 -465z"/>
<path d="M462 573 c3 -24 8 -28 33 -28 25 0 30 4 33 28 3 25 1 27 -33 27 -34
0 -36 -2 -33 -27z"/>
<path d="M870 582 c0 -41 51 -57 70 -23 17 33 11 41 -30 41 -32 0 -40 -4 -40
-18z"/>
<path d="M240 305 l0 -225 2130 0 2130 0 0 225 0 225 -2130 0 -2130 0 0 -225z
m2324 86 c3 -5 15 -7 26 -4 17 5 20 0 20 -26 0 -36 -12 -39 -40 -11 -21 21
-50 17 -50 -6 0 -8 12 -19 27 -25 42 -16 63 -39 63 -69 0 -31 -19 -51 -47 -51
-87 2 -83 1 -83 31 0 38 18 48 37 21 9 -13 23 -21 36 -19 33 5 31 27 -4 45
-52 29 -71 51 -64 76 12 38 64 63 79 38z m330 0 c3 -5 15 -7 26 -4 17 5 20 0
20 -26 0 -36 -12 -39 -40 -11 -21 21 -50 17 -50 -6 0 -8 12 -19 27 -25 42 -16
63 -39 63 -69 0 -31 -19 -51 -47 -51 -87 2 -83 1 -83 31 0 38 18 48 37 21 9
-13 23 -21 36 -19 33 5 31 27 -4 45 -52 29 -71 51 -64 76 12 38 64 63 79 38z
m830 0 c3 -5 15 -7 26 -4 17 5 20 0 20 -31 0 -39 -24 -51 -35 -17 -9 28 -33
33 -55 11 -22 -22 -25 -55 -10 -94 12 -33 51 -35 73 -3 14 20 16 20 22 4 15
-36 -41 -71 -86 -55 -53 18 -69 129 -24 173 24 25 59 33 69 16z m349 -1 c12 0
17 -8 17 -30 0 -35 -15 -39 -38 -9 -11 13 -23 18 -35 14 -28 -12 -19 -31 24
-50 45 -21 63 -46 54 -76 -10 -31 -45 -47 -92 -42 -39 5 -43 7 -43 33 0 38 20
49 38 22 19 -29 62 -30 62 -2 0 13 -12 25 -37 35 -42 18 -53 30 -53 62 0 27
38 56 65 49 11 -3 28 -6 38 -6z m-2630 -83 c15 -46 27 -89 27 -95 0 -20 -32
-13 -37 8 -8 28 -68 28 -76 0 -3 -11 -13 -20 -22 -20 -12 0 -16 6 -12 18 43
151 51 172 72 172 17 0 25 -14 48 -83z m167 68 c0 -8 -7 -15 -15 -15 -12 0
-15 -14 -15 -65 0 -51 3 -65 15 -65 8 0 15 -7 15 -15 0 -11 -12 -15 -50 -15
-38 0 -50 4 -50 15 0 8 7 15 15 15 12 0 15 14 15 64 0 48 -4 65 -15 70 -32 12
-13 26 35 26 38 0 50 -4 50 -15z m174 -7 c22 -31 20 -45 -9 -74 l-25 -25 26
-35 26 -34 -23 0 c-17 0 -32 12 -51 43 l-28 42 0 -42 c0 -36 -3 -43 -20 -43
-19 0 -20 7 -20 95 l0 95 54 0 c45 0 58 -4 70 -22z m76 -58 l0 -80 45 0 c33 0
45 -4 45 -15 0 -12 -13 -15 -60 -15 l-60 0 0 95 c0 78 3 95 15 95 12 0 15 -16
15 -80z m250 69 c0 -6 -9 -13 -20 -16 -17 -5 -20 -14 -20 -68 0 -54 3 -63 20
-68 39 -10 20 -27 -30 -27 -38 0 -50 4 -50 15 0 8 7 15 15 15 12 0 15 14 15
65 0 51 -3 65 -15 65 -8 0 -15 7 -15 15 0 11 12 15 50 15 30 0 50 -4 50 -11z
m116 -49 l23 -55 1 58 c0 44 3 57 15 57 12 0 15 -17 15 -95 0 -86 -2 -95 -19
-95 -14 0 -25 16 -42 63 l-24 62 -3 -62 c-2 -47 -7 -63 -17 -63 -12 0 -15 19
-15 96 0 93 1 95 22 92 16 -2 28 -18 44 -58z m224 45 c0 -11 -12 -15 -45 -15
-41 0 -45 -2 -45 -25 0 -22 4 -25 35 -25 24 0 35 -5 35 -15 0 -10 -11 -15 -35
-15 -31 0 -35 -3 -35 -25 0 -23 4 -25 45 -25 33 0 45 -4 45 -15 0 -12 -14 -15
-65 -15 l-65 0 0 95 0 95 65 0 c51 0 65 -3 65 -15z m660 0 c0 -11 -12 -15 -45
-15 -41 0 -45 -2 -45 -25 0 -22 4 -25 35 -25 24 0 35 -5 35 -15 0 -10 -11 -15
-35 -15 -31 0 -35 -3 -35 -25 0 -23 4 -25 45 -25 33 0 45 -4 45 -15 0 -12 -14
-15 -65 -15 l-65 0 0 95 0 95 65 0 c51 0 65 -3 65 -15z m152 -2 c25 -23 23
-58 -7 -81 l-24 -19 25 -34 c22 -30 23 -34 7 -38 -17 -3 -30 9 -65 60 l-17 24
0 -42 c-1 -36 -4 -43 -21 -43 -19 0 -20 7 -20 95 l0 95 52 0 c34 0 58 -6 70
-17z m92 -57 l21 -69 20 72 c15 55 23 71 37 71 21 0 19 -12 -17 -120 -16 -48
-27 -66 -42 -68 -17 -3 -23 10 -46 85 -32 103 -32 105 -11 101 10 -2 24 -29
38 -72z m236 63 c0 -6 -9 -13 -20 -16 -17 -5 -20 -14 -20 -68 0 -54 3 -63 20
-68 39 -10 20 -27 -30 -27 -38 0 -50 4 -50 15 0 8 7 15 15 15 12 0 15 14 15
65 0 51 -3 65 -15 65 -8 0 -15 7 -15 15 0 11 12 15 50 15 30 0 50 -4 50 -11z
m340 -4 c0 -11 -12 -15 -45 -15 -41 0 -45 -2 -45 -25 0 -22 4 -25 35 -25 24 0
35 -5 35 -15 0 -10 -11 -15 -35 -15 -31 0 -35 -3 -35 -25 0 -23 4 -25 45 -25
33 0 45 -4 45 -15 0 -12 -14 -15 -65 -15 l-65 0 0 95 0 95 65 0 c51 0 65 -3
65 -15z"/>
<path d="M1387 319 c-10 -35 -9 -39 8 -39 16 0 18 14 6 44 -7 18 -8 18 -14 -5z"/>
<path d="M1700 335 c0 -23 4 -26 28 -23 19 2 27 9 27 23 0 14 -8 21 -27 23
-24 3 -28 0 -28 -23z"/>
<path d="M3180 335 c0 -21 5 -25 30 -25 25 0 30 4 30 25 0 21 -5 25 -30 25
-25 0 -30 -4 -30 -25z"/>
</g>
</svg>
