<?xml version="1.0" standalone="no"?>
<!DOCTYPE svg PUBLIC "-//W3C//DTD SVG 20010904//EN"
 "http://www.w3.org/TR/2001/REC-SVG-20010904/DTD/svg10.dtd">
<svg version="1.0" xmlns="http://www.w3.org/2000/svg"
 width="500.000000pt" height="500.000000pt" viewBox="0 0 500.000000 500.000000"
 preserveAspectRatio="xMidYMid meet">
<metadata>
Created by potrace 1.16, written by Peter Selinger 2001-2019
</metadata>
<g transform="translate(0.000000,500.000000) scale(0.100000,-0.100000)"
fill="#0E185F" stroke="none">
<path d="M996 3678 c-13 -19 -14 -25 -2 -43 13 -19 23 -20 191 -20 168 0 178
1 191 20 12 18 11 24 -2 43 -15 21 -21 22 -189 22 -168 0 -174 -1 -189 -22z"/>
<path d="M830 3669 c-14 -6 -36 -20 -48 -32 -46 -43 -56 -75 -60 -204 l-4
-123 -37 -5 c-89 -15 -144 -58 -170 -134 -15 -45 -16 -1269 -1 -1323 14 -50
55 -97 105 -119 34 -16 67 -19 235 -19 l195 0 49 47 48 46 -11 146 c-13 164
-21 231 -26 231 -2 0 -94 -41 -204 -90 -111 -50 -204 -90 -206 -90 -3 0 -5 8
-5 18 0 11 27 44 59 76 55 51 60 61 63 104 3 52 24 64 44 24 11 -23 11 -22 63
24 45 40 51 51 51 84 0 47 17 61 40 33 16 -20 16 -20 58 17 39 35 42 41 42 88
0 123 35 274 65 286 20 7 43 -19 54 -62 15 -54 31 -170 31 -226 0 -44 4 -51
42 -86 42 -37 42 -37 58 -17 23 28 40 14 40 -33 0 -33 6 -44 51 -84 52 -46 52
-47 63 -24 20 40 41 28 44 -24 3 -43 8 -53 63 -104 32 -32 59 -65 59 -76 0
-10 -2 -18 -5 -18 -3 0 -95 41 -206 91 -111 49 -203 88 -206 85 -3 -2 -12 -87
-20 -188 l-16 -184 49 -47 49 -47 195 0 c168 0 201 3 235 19 51 23 91 70 105
121 7 26 10 253 8 677 l-3 638 -25 45 c-29 51 -81 85 -147 95 l-43 6 0 97 c-1
111 -11 165 -37 201 -34 45 -70 64 -128 69 -53 4 -55 4 -55 -20 0 -22 5 -26
40 -31 94 -12 120 -58 120 -212 l0 -105 -405 0 -405 0 0 113 c0 95 3 117 20
145 21 35 72 62 115 62 20 0 25 5 25 25 0 23 -4 25 -42 24 -24 0 -54 -5 -68
-10z"/>
<path d="M2140 2965 c0 -656 1 -642 -61 -664 -17 -6 -35 -8 -40 -5 -5 3 -9
-42 -9 -102 l0 -107 73 5 c106 7 175 48 220 133 22 40 22 46 25 688 l3 647
-106 0 -105 0 0 -595z"/>
<path d="M2510 2830 l0 -730 95 0 95 0 0 490 c0 320 3 490 10 490 6 0 10 -5
10 -12 0 -6 32 -222 70 -479 39 -258 70 -473 70 -479 0 -5 20 -10 45 -10 38 0
45 3 50 23 2 12 34 227 71 477 36 250 69 462 73 470 3 8 7 -207 9 -477 l2
-493 100 0 100 0 0 730 0 731 -132 -3 -131 -3 -63 -330 c-34 -181 -65 -348
-70 -370 l-7 -40 -9 50 c-5 28 -36 192 -68 365 -33 174 -60 319 -60 323 0 4
-58 7 -130 7 l-130 0 0 -730z"/>
<path d="M3470 2830 l0 -730 105 0 105 0 0 258 1 257 34 80 c20 47 36 74 39
65 3 -8 37 -152 76 -320 39 -168 73 -313 76 -322 5 -16 19 -18 105 -18 76 0
99 3 99 13 0 8 -49 229 -109 492 l-109 478 97 236 97 236 -99 3 c-55 1 -101 1
-103 -1 -2 -2 -44 -113 -94 -247 -49 -134 -94 -248 -100 -254 -7 -7 -10 76
-10 247 l0 257 -105 0 -105 0 0 -730z"/>
<path d="M2116 1737 c-36 -69 -73 -127 -81 -131 -30 -11 -14 -26 29 -26 43 0
67 12 47 25 -7 4 -6 15 1 30 10 22 17 25 68 25 51 0 58 -2 64 -22 3 -13 1 -24
-4 -26 -6 -2 -10 -10 -10 -18 0 -10 13 -14 45 -14 32 0 45 4 45 14 0 8 -5 16
-11 18 -6 2 -25 57 -43 123 -30 112 -34 120 -58 123 -24 3 -31 -7 -92 -121z"/>
<path d="M2380 1849 c0 -7 6 -17 14 -23 21 -17 1 -185 -25 -208 -32 -28 -23
-38 36 -38 43 0 55 3 55 15 0 9 -6 18 -13 21 -10 4 -12 21 -5 77 13 117 18
137 33 137 8 0 15 7 15 15 0 12 -13 15 -55 15 -34 0 -55 -4 -55 -11z"/>
<path d="M2550 1846 c0 -8 5 -16 12 -18 18 -6 -5 -198 -26 -213 -31 -23 -18
-35 39 -35 57 0 70 12 39 35 -12 8 -15 20 -9 43 10 49 35 40 70 -23 26 -49 33
-55 62 -55 34 0 47 23 18 33 -8 4 -25 23 -38 44 l-24 37 34 32 c47 45 46 96
-4 123 -33 17 -173 15 -173 -3z"/>
<path d="M2830 1846 c0 -8 5 -16 11 -18 14 -5 -6 -201 -21 -206 -6 -2 -15 -12
-20 -23 -10 -18 -6 -19 95 -19 l105 0 0 35 c0 36 -13 47 -24 20 -7 -19 -96
-22 -96 -3 0 6 5 51 11 100 9 69 16 91 30 99 34 18 20 29 -36 29 -41 0 -55 -4
-55 -14z"/>
<path d="M3060 1849 c0 -7 6 -17 14 -23 21 -17 1 -185 -25 -208 -32 -28 -23
-38 36 -38 43 0 55 3 55 15 0 9 -6 18 -13 21 -10 4 -12 21 -5 77 13 117 18
137 33 137 8 0 15 7 15 15 0 12 -13 15 -55 15 -34 0 -55 -4 -55 -11z"/>
<path d="M3230 1846 c0 -8 5 -16 11 -18 14 -5 -6 -201 -21 -206 -6 -2 -15 -12
-20 -23 -10 -18 -7 -19 45 -19 41 0 55 4 55 15 0 7 -7 18 -15 22 -12 7 -12 20
-4 78 5 38 11 70 13 72 2 2 31 -39 66 -92 42 -64 69 -95 81 -95 11 0 19 6 19
13 0 6 7 59 15 117 8 58 15 108 15 113 0 4 7 7 15 7 8 0 15 7 15 15 0 12 -13
15 -55 15 -42 0 -55 -3 -55 -15 0 -8 7 -15 15 -15 17 0 19 -42 6 -120 l-7 -45
-64 98 c-60 90 -67 97 -97 97 -22 0 -33 -5 -33 -14z"/>
<path d="M3580 1846 c0 -8 5 -16 12 -18 18 -6 -5 -198 -26 -213 -36 -27 -17
-35 83 -35 94 0 99 1 105 23 9 35 7 47 -9 47 -8 0 -15 -7 -15 -15 0 -11 -12
-15 -51 -15 -48 0 -51 1 -45 23 3 12 6 30 6 40 0 14 9 17 50 17 43 0 50 3 50
20 0 17 -7 20 -45 20 l-45 0 0 40 0 40 50 0 c38 0 50 -4 50 -15 0 -32 28 -14
32 20 l4 35 -103 0 c-82 0 -103 -3 -103 -14z"/>
<path d="M3869 1831 c-49 -50 -36 -99 35 -126 52 -20 60 -34 40 -64 -21 -30
-94 -31 -94 -1 0 32 -27 23 -34 -12 -3 -17 -4 -34 -1 -36 3 -3 32 -8 65 -10
56 -4 61 -2 90 27 26 25 31 37 28 68 -3 34 -8 40 -53 64 -39 20 -50 31 -50 50
0 21 5 24 43 27 37 3 42 1 42 -17 0 -33 27 -24 34 11 8 39 -4 48 -67 48 -40 0
-53 -5 -78 -29z"/>
</g>
</svg>
